<svg xmlns="http://www.w3.org/2000/svg" width="16" height="24" viewBox="0 0 16 24">
  <path fill-rule="evenodd" d="M84.65625,136.625 C81.4374839,136.625 79.2135478,138.3229 77.984375,141.71875 C77.3281217,143.541676 77,145.723946 77,148.265625 C77,151.546891 77.5468695,154.161449 78.640625,156.109375 C79.9531316,158.44272 81.9531116,159.609375 84.640625,159.609375 C87.6198066,159.609375 89.7656184,158.182306 91.078125,155.328125 C91.9843795,153.338532 92.4375,150.822932 92.4375,147.78125 C92.4375,144.572901 91.937505,142.046884 90.9375,140.203125 C89.6458269,137.817696 87.5520978,136.625 84.65625,136.625 Z M84.625,157.046875 C82.8124909,157.046875 81.5312538,155.989594 80.78125,153.875 C80.2916642,152.489576 80.046875,150.656261 80.046875,148.375 C80.046875,145.343735 80.4296837,143.049487 81.1953125,141.492188 C81.9609413,139.934888 83.1718667,139.15625 84.828125,139.15625 C86.6302173,139.15625 87.8437469,139.976554 88.46875,141.617188 C89.0937531,143.257821 89.40625,145.348946 89.40625,147.890625 C89.40625,151.411476 88.9739627,153.817702 88.109375,155.109375 C87.2447873,156.401048 86.0833406,157.046875 84.625,157.046875 Z" transform="translate(-77 -136)"/>
</svg>
