<svg xmlns="http://www.w3.org/2000/svg" width="16" height="23" viewBox="0 0 16 23">
  <path fill-rule="evenodd" d="M153,159 C153.104167,157.072907 153.502601,155.39584 154.195312,153.96875 C154.888024,152.54166 156.239573,151.244798 158.25,150.078125 L161.25,148.34375 C162.593757,147.562496 163.536456,146.895836 164.078125,146.34375 C164.932296,145.479162 165.359375,144.489589 165.359375,143.375 C165.359375,142.07291 164.968754,141.039066 164.1875,140.273438 C163.406246,139.507809 162.36459,139.125 161.0625,139.125 C159.135407,139.125 157.802087,139.854159 157.0625,141.3125 C156.666665,142.093754 156.447917,143.177076 156.40625,144.5625 L153.546875,144.5625 C153.578125,142.614574 153.937497,141.026048 154.625,139.796875 C155.843756,137.630198 157.994776,136.546875 161.078125,136.546875 C163.640638,136.546875 165.513015,137.239576 166.695312,138.625 C167.87761,140.010424 168.46875,141.552075 168.46875,143.25 C168.46875,145.041676 167.838548,146.57291 166.578125,147.84375 C165.848955,148.583337 164.541676,149.479161 162.65625,150.53125 L160.515625,151.71875 C159.494787,152.281253 158.692711,152.817706 158.109375,153.328125 C157.067703,154.23438 156.41146,155.239578 156.140625,156.34375 L168.359375,156.34375 L168.359375,159 L153,159 Z" transform="translate(-153 -136)"/>
</svg>
