<svg xmlns="http://www.w3.org/2000/svg" width="17" height="24" viewBox="0 0 17 24">
  <path fill-rule="evenodd" d="M198.3125,159.609375 C195.666653,159.609375 193.747402,158.88282 192.554688,157.429688 C191.361973,155.976555 190.765625,154.208344 190.765625,152.125 L193.703125,152.125 C193.828126,153.572924 194.098956,154.624997 194.515625,155.28125 C195.244795,156.458339 196.56249,157.046875 198.46875,157.046875 C199.947924,157.046875 201.135412,156.651046 202.03125,155.859375 C202.927088,155.067704 203.375,154.046881 203.375,152.796875 C203.375,151.255201 202.903651,150.177086 201.960938,149.5625 C201.018224,148.947914 199.708342,148.640625 198.03125,148.640625 C197.843749,148.640625 197.653647,148.643229 197.460938,148.648438 C197.268228,148.653646 197.072918,148.661458 196.875,148.671875 L196.875,146.1875 C197.166668,146.21875 197.411457,146.239583 197.609375,146.25 C197.807293,146.260417 198.020832,146.265625 198.25,146.265625 C199.302089,146.265625 200.166663,146.09896 200.84375,145.765625 C202.031256,145.182289 202.625,144.140633 202.625,142.640625 C202.625,141.526036 202.229171,140.66667 201.4375,140.0625 C200.645829,139.45833 199.723964,139.15625 198.671875,139.15625 C196.796866,139.15625 195.500004,139.781244 194.78125,141.03125 C194.385415,141.718753 194.161459,142.69791 194.109375,143.96875 L191.328125,143.96875 C191.328125,142.302075 191.661455,140.885423 192.328125,139.71875 C193.473964,137.635406 195.489569,136.59375 198.375,136.59375 C200.656261,136.59375 202.421869,137.101557 203.671875,138.117188 C204.921881,139.132818 205.546875,140.604157 205.546875,142.53125 C205.546875,143.906257 205.177087,145.020829 204.4375,145.875 C203.979164,146.406253 203.38542,146.822915 202.65625,147.125 C203.833339,147.447918 204.752601,148.070308 205.414062,148.992188 C206.075524,149.914067 206.40625,151.04166 206.40625,152.375 C206.40625,154.510427 205.703132,156.249993 204.296875,157.59375 C202.890618,158.937507 200.895846,159.609375 198.3125,159.609375 Z" transform="translate(-190 -136)"/>
</svg>
