<svg xmlns="http://www.w3.org/2000/svg" width="16" height="23" viewBox="0 0 16 23">
  <path fill-rule="evenodd" d="M269.953125,153.296875 C270.140626,154.90105 270.88541,156.010414 272.1875,156.625 C272.85417,156.937502 273.624996,157.09375 274.5,157.09375 C276.166675,157.09375 277.401038,156.562505 278.203125,155.5 C279.005212,154.437495 279.40625,153.260423 279.40625,151.96875 C279.40625,150.406242 278.929692,149.197921 277.976562,148.34375 C277.023433,147.489579 275.880215,147.0625 274.546875,147.0625 C273.57812,147.0625 272.747399,147.249998 272.054688,147.625 C271.361976,148.000002 270.770836,148.52083 270.28125,149.1875 L267.84375,149.046875 L269.546875,137 L281.171875,137 L281.171875,139.71875 L271.65625,139.71875 L270.703125,145.9375 C271.223961,145.541665 271.718748,145.244793 272.1875,145.046875 C273.020838,144.703123 273.98437,144.53125 275.078125,144.53125 C277.130219,144.53125 278.869785,145.192702 280.296875,146.515625 C281.723965,147.838548 282.4375,149.515615 282.4375,151.546875 C282.4375,153.661469 281.783861,155.526034 280.476562,157.140625 C279.169264,158.755216 277.083348,159.5625 274.21875,159.5625 C272.395824,159.5625 270.783861,159.049484 269.382812,158.023438 C267.981764,156.997391 267.197918,155.421886 267.03125,153.296875 L269.953125,153.296875 Z" transform="translate(-267 -137)"/>
</svg>
