<svg xmlns="http://www.w3.org/2000/svg" width="16" height="24" viewBox="0 0 16 24">
  <path fill-rule="evenodd" d="M313.359375,136.53125 C315.859388,136.53125 317.601558,137.179681 318.585938,138.476562 C319.570317,139.773444 320.0625,141.109368 320.0625,142.484375 L317.28125,142.484375 C317.114582,141.598954 316.84896,140.906252 316.484375,140.40625 C315.807288,139.468745 314.781257,139 313.40625,139 C311.833325,139 310.583338,139.726555 309.65625,141.179688 C308.729162,142.63282 308.213542,144.713528 308.109375,147.421875 C308.755212,146.473954 309.567703,145.765627 310.546875,145.296875 C311.442713,144.880206 312.442703,144.671875 313.546875,144.671875 C315.421884,144.671875 317.057285,145.270827 318.453125,146.46875 C319.848965,147.666673 320.546875,149.453113 320.546875,151.828125 C320.546875,153.859385 319.885423,155.658846 318.5625,157.226562 C317.239577,158.794279 315.354179,159.578125 312.90625,159.578125 C310.81249,159.578125 309.005216,158.783862 307.484375,157.195312 C305.963534,155.606763 305.203125,152.93231 305.203125,149.171875 C305.203125,146.390611 305.541663,144.03126 306.21875,142.09375 C307.52084,138.385398 309.901024,136.53125 313.359375,136.53125 Z M313.15625,157.078125 C314.635424,157.078125 315.742184,156.580734 316.476562,155.585938 C317.210941,154.591141 317.578125,153.416673 317.578125,152.0625 C317.578125,150.916661 317.250003,149.825526 316.59375,148.789062 C315.937497,147.752599 314.7448,147.234375 313.015625,147.234375 C311.807286,147.234375 310.7474,147.635413 309.835938,148.4375 C308.924475,149.239587 308.46875,150.447909 308.46875,152.0625 C308.46875,153.479174 308.882808,154.669266 309.710938,155.632812 C310.539067,156.596359 311.687493,157.078125 313.15625,157.078125 Z" transform="translate(-305 -136)"/>
</svg>
