<svg xmlns="http://www.w3.org/2000/svg" width="16" height="24" viewBox="0 0 16 24">
  <path fill-rule="evenodd" d="M388.703125,146 C389.942715,146 390.911455,145.653649 391.609375,144.960938 C392.307295,144.268226 392.65625,143.442713 392.65625,142.484375 C392.65625,141.651038 392.32292,140.88542 391.65625,140.1875 C390.98958,139.48958 389.973965,139.140625 388.609375,139.140625 C387.255202,139.140625 386.276045,139.48958 385.671875,140.1875 C385.067705,140.88542 384.765625,141.70312 384.765625,142.640625 C384.765625,143.692714 385.156246,144.515622 385.9375,145.109375 C386.718754,145.703128 387.64062,146 388.703125,146 Z M388.875,157.078125 C390.17709,157.078125 391.257808,156.726566 392.117188,156.023438 C392.976567,155.320309 393.40625,154.27084 393.40625,152.875 C393.40625,151.427076 392.963546,150.328129 392.078125,149.578125 C391.192704,148.828121 390.057299,148.453125 388.671875,148.453125 C387.328118,148.453125 386.231775,148.835934 385.382812,149.601562 C384.53385,150.367191 384.109375,151.427077 384.109375,152.78125 C384.109375,153.947923 384.497392,154.955725 385.273438,155.804688 C386.049483,156.65365 387.249992,157.078125 388.875,157.078125 Z M384.875,147.078125 C384.093746,146.74479 383.484377,146.354169 383.046875,145.90625 C382.223954,145.072913 381.8125,143.98959 381.8125,142.65625 C381.8125,140.989575 382.416661,139.557298 383.625,138.359375 C384.833339,137.161452 386.546864,136.5625 388.765625,136.5625 C390.911469,136.5625 392.593744,137.127599 393.8125,138.257812 C395.031256,139.388026 395.640625,140.708326 395.640625,142.21875 C395.640625,143.61459 395.286462,144.744787 394.578125,145.609375 C394.18229,146.098961 393.567712,146.578123 392.734375,147.046875 C393.661463,147.47396 394.390622,147.963539 394.921875,148.515625 C395.911463,149.557297 396.40625,150.91145 396.40625,152.578125 C396.40625,154.546885 395.744798,156.216139 394.421875,157.585938 C393.098952,158.955736 391.229179,159.640625 388.8125,159.640625 C386.635406,159.640625 384.794278,159.049485 383.289062,157.867188 C381.783847,156.68489 381.03125,154.968761 381.03125,152.71875 C381.03125,151.395827 381.354163,150.252609 382,149.289062 C382.645837,148.325516 383.60416,147.588544 384.875,147.078125 Z" transform="translate(-381 -136)"/>
</svg>
