<svg xmlns="http://www.w3.org/2000/svg" width="16" height="24" viewBox="0 0 16 24">
  <path fill-rule="evenodd" d="M422.25,153.59375 C422.333334,155.145841 422.932286,156.218747 424.046875,156.8125 C424.619795,157.125002 425.265621,157.28125 425.984375,157.28125 C427.328132,157.28125 428.473954,156.72136 429.421875,155.601562 C430.369796,154.481765 431.041665,152.20835 431.4375,148.78125 C430.812497,149.770838 430.039067,150.466144 429.117188,150.867188 C428.195308,151.268231 427.20313,151.46875 426.140625,151.46875 C423.984364,151.46875 422.278652,150.796882 421.023438,149.453125 C419.768223,148.109368 419.140625,146.380219 419.140625,144.265625 C419.140625,142.234365 419.76041,140.447924 421,138.90625 C422.23959,137.364576 424.067696,136.59375 426.484375,136.59375 C429.744808,136.59375 431.994785,138.062485 433.234375,141 C433.921878,142.614591 434.265625,144.635405 434.265625,147.0625 C434.265625,149.802097 433.854171,152.229156 433.03125,154.34375 C431.66666,157.864601 429.354183,159.625 426.09375,159.625 C423.906239,159.625 422.244797,159.052089 421.109375,157.90625 C419.973953,156.760411 419.40625,155.322925 419.40625,153.59375 L422.25,153.59375 Z M426.515625,149 C427.630214,149 428.648433,148.632816 429.570312,147.898438 C430.492192,147.164059 430.953125,145.880218 430.953125,144.046875 C430.953125,142.401033 430.539067,141.174483 429.710938,140.367188 C428.882808,139.559892 427.828131,139.15625 426.546875,139.15625 C425.171868,139.15625 424.080733,139.617183 423.273438,140.539062 C422.466142,141.460942 422.0625,142.692701 422.0625,144.234375 C422.0625,145.692716 422.416663,146.851558 423.125,147.710938 C423.833337,148.570317 424.963534,149 426.515625,149 Z" transform="translate(-419 -136)"/>
</svg>
